<mxfile host="app.diagrams.net" modified="2022-03-30T14:45:54.379Z" agent="5.0 (Windows NT 10.0; Win64; x64) AppleWebKit/537.36 (KHTML, like Gecko) Chrome/99.0.4844.84 Safari/537.36" etag="86gMZkPbInOf4SkUyhCR" version="17.2.5" type="github">
  <diagram id="7UdDkVMXQPqJ16l7_mLh" name="第 1 页">
    <mxGraphModel dx="716" dy="383" grid="1" gridSize="10" guides="1" tooltips="1" connect="1" arrows="1" fold="1" page="1" pageScale="1" pageWidth="827" pageHeight="1169" math="0" shadow="0">
      <root>
        <mxCell id="0" />
        <mxCell id="1" parent="0" />
        <mxCell id="IbyFdjmPlWambPThYL8s-3" value="" style="rounded=1;whiteSpace=wrap;html=1;" vertex="1" parent="1">
          <mxGeometry x="320" y="310" width="220" height="150" as="geometry" />
        </mxCell>
        <mxCell id="IbyFdjmPlWambPThYL8s-4" value="0" style="rounded=1;whiteSpace=wrap;html=1;" vertex="1" parent="1">
          <mxGeometry x="110" y="340" width="90" height="20" as="geometry" />
        </mxCell>
        <mxCell id="IbyFdjmPlWambPThYL8s-5" value="1" style="rounded=1;whiteSpace=wrap;html=1;" vertex="1" parent="1">
          <mxGeometry x="110" y="360" width="90" height="20" as="geometry" />
        </mxCell>
        <mxCell id="IbyFdjmPlWambPThYL8s-6" value="令狐冲" style="rounded=1;whiteSpace=wrap;html=1;" vertex="1" parent="1">
          <mxGeometry x="110" y="380" width="90" height="20" as="geometry" />
        </mxCell>
        <mxCell id="IbyFdjmPlWambPThYL8s-7" value="16" style="rounded=1;whiteSpace=wrap;html=1;" vertex="1" parent="1">
          <mxGeometry x="110" y="400" width="90" height="20" as="geometry" />
        </mxCell>
        <mxCell id="IbyFdjmPlWambPThYL8s-8" value="1" style="rounded=1;whiteSpace=wrap;html=1;" vertex="1" parent="1">
          <mxGeometry x="110" y="420" width="90" height="20" as="geometry" />
        </mxCell>
      </root>
    </mxGraphModel>
  </diagram>
</mxfile>
